 <svg width="72" height="58" viewBox="0 0 72 58" fill="none" xmlns="http://www.w3.org/2000/svg">
    <path
      d="M4.2915 43.1208V6.1585C4.2915 0.940305 8.39842 0.118921 10.4519 0.360505H27.4835C29.2954 0.360505 30.7449 1.08525 32.5568 4.34663C34.0063 6.95573 37.7508 7.12484 39.4419 6.88325H64.4457C68.2144 6.88325 68.915 8.81592 68.7943 9.78225V43.8455L4.2915 43.1208Z"
      fill="url(#paint0_linear_6711_3574)" />
    <path
      d="M62.2722 57.6156H15.5258H7.55353C2.1179 57.6156 1.75553 51.4551 1.75553 47.1066C1.75553 42.6243 0.668399 34.5007 0.668457 26.8136C0.668512 19.5661 4.413 19.4453 6.82883 19.5661C11.2981 19.4453 20.744 19.2762 22.7733 19.5661C25.31 19.9285 28.9337 18.8414 32.5575 14.1305C35.4565 10.3618 38.3555 9.90285 39.4426 10.1445C45.8445 10.0237 59.5116 10.1446 65.896 10.1445C71.3316 10.1443 71.3316 14.7758 71.3316 18.1167C71.3316 21.0155 69.8821 40.584 69.5197 49.6433C69.2298 56.8908 64.5672 57.978 62.2722 57.6156Z"
      fill="url(#paint1_linear_6711_3574)" />
    <path
      d="M6.58797 20.9786C6.00817 18.0796 7.5543 17.5965 8.39984 17.7172C9.1245 17.7172 10.5738 17.4998 10.5738 16.6301C10.5738 15.543 9.84907 15.1806 6.95007 15.9054C4.63087 16.4852 4.53424 19.046 4.77582 20.2539L6.22532 27.139C6.22532 29.1925 7.09502 33.2994 10.5738 33.2994C14.0526 33.2994 13.7144 29.1925 13.1104 27.139C12.7481 25.8103 12.2411 21.9208 11.6613 19.8915C11.0815 17.8622 10.0907 19.2875 9.84907 19.8915C10.2114 21.4618 11.0087 25.1097 11.2986 27.139C11.6609 29.6756 12.7481 30.4004 10.5738 31.1251C8.83442 31.7049 7.9164 29.1925 7.67482 27.8638C7.55412 26.7766 7.16777 23.8776 6.58797 20.9786Z"
      fill="#5DD09A" />
    <path fill-rule="evenodd" clip-rule="evenodd" d="M43.5824 24.2393H21.8223C19.6131 24.2393 17.8223 26.0301 17.8223 28.2393V57.5778H53.335V33.7133L43.5824 24.2393Z" fill="#F2F2F2" />
    <path d="M46.4202 33.4866L53.3335 33.661L43.5776 24.2393L43.9117 31.1244C43.9117 31.1244 43.5211 33.4866 46.4202 33.4866Z" fill="#CFD8E0" />
    <path
      d="M38.6424 54.0887C37.7508 53.9963 37.2889 53.8094 36.9537 53.5322L36.9301 53.5086C36.64 53.1949 36.4897 52.501 36.4897 51.4117V39.7607C36.4897 39.5975 36.6164 39.46 36.7904 39.46H38.666C40.3461 39.46 40.4492 39.692 40.9799 40.1668C41.5578 40.6201 41.8135 40.8521 42.1143 42.3582C42.1486 42.4979 42.2647 42.601 42.415 42.601H42.5311C42.7051 42.601 42.8426 42.4613 42.8318 42.2873L42.7975 37.29H26.6863C26.5231 37.29 26.3963 37.4168 26.3856 37.5801L26.3619 42.2744C26.3512 42.4484 26.4887 42.5881 26.6627 42.5881H26.7787C26.9291 42.5881 27.0451 42.485 27.0795 42.3453C27.3803 40.85 27.6359 40.618 28.2139 40.1668L28.2246 40.1561C28.7467 39.692 28.8605 39.46 30.5299 39.46H32.4055C32.5688 39.46 32.7063 39.5867 32.7063 39.7607V51.0529C32.7063 52.3506 32.5666 53.1283 32.2766 53.3818C32.2529 53.3926 32.2422 53.4162 32.2293 53.4291C31.9736 53.775 31.5461 53.9963 30.6566 54.0887C30.4934 54.0994 30.3773 54.2283 30.3773 54.3895C30.3773 54.5527 30.5041 54.6902 30.6781 54.6902H38.6188C38.782 54.6902 38.9195 54.5635 38.9195 54.3895C38.9217 54.2391 38.8057 54.0994 38.6424 54.0887ZM45.6098 49.4137L45.5947 47.2867H38.7154C38.6467 47.2867 38.593 47.3426 38.5865 47.4092L38.5758 49.4072C38.5693 49.4824 38.6316 49.5404 38.7047 49.5404H38.7541C38.8186 49.5404 38.868 49.4953 38.883 49.4373C39.0119 48.8014 39.1193 48.7025 39.3664 48.5113L39.3729 48.5049C39.5963 48.3072 39.6457 48.2084 40.3568 48.2084H41.1582C41.227 48.2084 41.2871 48.2643 41.2871 48.3352V53.1412C41.2871 53.6934 41.2291 54.0221 41.1045 54.1316C41.0938 54.1381 41.0895 54.1467 41.0852 54.151C40.9777 54.2992 40.793 54.3916 40.4127 54.4303C40.3439 54.4367 40.2924 54.4883 40.2924 54.557C40.2924 54.6258 40.3482 54.6838 40.4213 54.6838H43.8115C43.8803 54.6838 43.9404 54.6279 43.9404 54.557C43.9404 54.4926 43.891 54.4346 43.8201 54.4303C43.4398 54.3916 43.2422 54.3121 43.0982 54.1939L43.0875 54.1832C42.965 54.05 42.8984 53.7535 42.8984 53.2895V48.3373C42.8984 48.2686 42.9543 48.2105 43.0273 48.2105H43.8287C44.5463 48.2105 44.5893 48.3094 44.817 48.5113C45.0641 48.7025 45.1736 48.8035 45.3004 49.4438C45.3154 49.5018 45.3648 49.5469 45.4293 49.5469H45.4787C45.5561 49.5469 45.6162 49.4867 45.6098 49.4137Z"
      fill="#12B76A" />
    <defs>
      <linearGradient id="paint0_linear_6711_3574" x1="36.5491" y1="0.323242" x2="36.6639" y2="13.7311" gradientUnits="userSpaceOnUse">
        <stop stop-color="#9DFFD1" />
        <stop offset="1" stop-color="#4FD49F" />
      </linearGradient>
      <linearGradient id="paint1_linear_6711_3574" x1="36" y1="10.0908" x2="36" y2="57.6764" gradientUnits="userSpaceOnUse">
        <stop stop-color="#A2FFC8" />
        <stop offset="1" stop-color="#43B17E" />
      </linearGradient>
    </defs>
  </svg>