 <svg data-v-5b144cc4="" viewBox="0 0 15 16" fill="none" xmlns="http://www.w3.org/2000/svg" class="icon current-color">
    <g id="upload_text_svg__upload text">
      <g id="upload_text_svg__Group 1707478057">
        <path
          id="upload_text_svg__Vector"
          d="M12.0413 14.982H3.65102C2.74055 14.982 2 14.2413 2 13.331V2.65102C2 1.74055 2.7407 1 3.65102 1H9.78684C10.3709 1 10.9276 1.25144 11.3138 1.68975L13.1842 3.81234C13.5118 4.18399 13.6925 4.66242 13.6923 5.15783V13.331C13.6923 14.2414 12.9516 14.982 12.0413 14.982ZM3.65102 2.09479C3.34428 2.09479 3.09479 2.34428 3.09479 2.65102V13.331C3.09479 13.6377 3.34428 13.8872 3.65102 13.8872H12.0413C12.348 13.8872 12.5975 13.6377 12.5975 13.331V5.15783C12.5975 4.92886 12.5141 4.70798 12.3627 4.53611L10.4923 2.41351C10.4041 2.31339 10.2955 2.23319 10.1739 2.17824C10.0522 2.12329 9.92031 2.09484 9.78684 2.09479H3.65102Z"
          fill="#576ff3"></path>
        <path
          id="upload_text_svg__Vector_2"
          d="M13.1731 5.72168H10.9187C10.0082 5.72168 9.26764 4.98098 9.26764 4.07065V1.5108H10.3624V4.07065C10.3624 4.37739 10.6119 4.62689 10.9187 4.62689H13.1731V5.72168Z"
          fill="#576ff3"></path>
        <path
          id="upload_text_svg__Vector_3"
          d="M9.72731 7.27954H5.96494C5.66254 7.27954 5.41754 7.52469 5.41754 7.82693V8.47383C5.41754 8.77622 5.66269 9.02122 5.96494 9.02122C6.26733 9.02122 6.51233 8.77607 6.51233 8.47383V8.37433H7.29873V11.0669H7.24134C6.93895 11.0669 6.69394 11.3121 6.69394 11.6143C6.69394 11.9167 6.9391 12.1617 7.24134 12.1617H8.45091C8.7533 12.1617 8.9983 11.9166 8.9983 11.6143C8.9983 11.3119 8.75315 11.0669 8.45091 11.0669H8.39352V8.37433H9.17992V8.47383C9.17992 8.77622 9.42507 9.02122 9.72731 9.02122C10.0297 9.02122 10.2747 8.77607 10.2747 8.47383V7.82693C10.2747 7.52454 10.0297 7.27954 9.72731 7.27954Z"
          fill="#576ff3"></path>
      </g>
    </g>
  </svg>